<?xml version="1.0" encoding="UTF-8"?>
<svg id="Layer_2" data-name="Layer 2" xmlns="http://www.w3.org/2000/svg" xmlns:xlink="http://www.w3.org/1999/xlink" viewBox="0 0 1007.94 344.96">
  <defs>
    <style>
      .cls-1 {
        fill: url(#linear-gradient);
      }

      .cls-2 {
        fill: #606060;
      }

      .cls-3 {
        fill: url(#linear-gradient-8);
      }

      .cls-4 {
        fill: url(#linear-gradient-9);
      }

      .cls-5 {
        fill: url(#linear-gradient-3);
      }

      .cls-6 {
        fill: url(#linear-gradient-4);
      }

      .cls-7 {
        fill: url(#linear-gradient-2);
      }

      .cls-8 {
        fill: url(#linear-gradient-6);
      }

      .cls-9 {
        fill: url(#linear-gradient-7);
      }

      .cls-10 {
        fill: url(#linear-gradient-5);
      }

      .cls-11 {
        fill: url(#linear-gradient-14);
      }

      .cls-12 {
        fill: url(#linear-gradient-18);
      }

      .cls-13 {
        fill: url(#linear-gradient-20);
      }

      .cls-14 {
        fill: url(#linear-gradient-15);
      }

      .cls-15 {
        fill: url(#linear-gradient-19);
      }

      .cls-16 {
        fill: url(#linear-gradient-16);
      }

      .cls-17 {
        fill: url(#linear-gradient-17);
      }

      .cls-18 {
        fill: url(#linear-gradient-13);
      }

      .cls-19 {
        fill: url(#linear-gradient-12);
      }

      .cls-20 {
        fill: url(#linear-gradient-10);
      }

      .cls-21 {
        fill: url(#linear-gradient-11);
      }
    </style>
    <linearGradient id="linear-gradient" x1="281.78" y1="20.54" x2="281.78" y2="287.38" gradientUnits="userSpaceOnUse">
      <stop offset="0" stop-color="#00968a"/>
      <stop offset=".14" stop-color="#0b6e79"/>
      <stop offset=".28" stop-color="#154c6b"/>
      <stop offset=".42" stop-color="#1d3360"/>
      <stop offset=".54" stop-color="#21245a"/>
      <stop offset=".64" stop-color="#231f58"/>
      <stop offset=".68" stop-color="#281e57"/>
      <stop offset=".74" stop-color="#381e55"/>
      <stop offset=".8" stop-color="#531e52"/>
      <stop offset=".87" stop-color="#781e4e"/>
      <stop offset=".93" stop-color="#a71d48"/>
      <stop offset="1" stop-color="#da1d43"/>
    </linearGradient>
    <linearGradient id="linear-gradient-2" x1="892.62" y1="79.33" x2="892.62" y2="270.01" xlink:href="#linear-gradient"/>
    <linearGradient id="linear-gradient-3" x1="8.9" y1="-1.1" x2="994.85" y2="197.89" xlink:href="#linear-gradient"/>
    <linearGradient id="linear-gradient-4" x1="7.27" y1="6.99" x2="993.21" y2="205.99" xlink:href="#linear-gradient"/>
    <linearGradient id="linear-gradient-5" x1="3.07" y1="27.79" x2="989.01" y2="226.79" xlink:href="#linear-gradient"/>
    <linearGradient id="linear-gradient-6" x1="695.96" y1="68.78" x2="695.96" y2="262.12" xlink:href="#linear-gradient"/>
    <linearGradient id="linear-gradient-7" x1="696.09" y1="68.78" x2="696.09" y2="262.12" xlink:href="#linear-gradient"/>
    <linearGradient id="linear-gradient-8" x1="571.9" y1="68.78" x2="571.9" y2="262.12" xlink:href="#linear-gradient"/>
    <linearGradient id="linear-gradient-9" x1="529.7" y1="68.78" x2="529.7" y2="262.12" xlink:href="#linear-gradient"/>
    <linearGradient id="linear-gradient-10" x1="529.7" y1="68.78" x2="529.7" y2="262.12" xlink:href="#linear-gradient"/>
    <linearGradient id="linear-gradient-11" x1="529.7" y1="68.78" x2="529.7" y2="262.12" xlink:href="#linear-gradient"/>
    <linearGradient id="linear-gradient-12" x1="529.7" y1="68.78" x2="529.7" y2="262.12" xlink:href="#linear-gradient"/>
    <linearGradient id="linear-gradient-13" x1="529.7" y1="68.78" x2="529.7" y2="262.12" xlink:href="#linear-gradient"/>
    <linearGradient id="linear-gradient-14" x1="701.38" y1="74.81" x2="701.38" y2="274.37" xlink:href="#linear-gradient"/>
    <linearGradient id="linear-gradient-15" x1="701.24" y1="74.81" x2="701.24" y2="274.37" xlink:href="#linear-gradient"/>
    <linearGradient id="linear-gradient-16" x1="18.52" y1="27.21" x2="74.3" y2="257.87" xlink:href="#linear-gradient"/>
    <linearGradient id="linear-gradient-17" x1="157.19" y1=".94" x2="157.19" y2="258.89" xlink:href="#linear-gradient"/>
    <linearGradient id="linear-gradient-18" x1="415.06" y1="80.01" x2="415.06" y2="267.1" xlink:href="#linear-gradient"/>
    <linearGradient id="linear-gradient-19" x1="491.27" y1="82.1" x2="491.27" y2="265.19" xlink:href="#linear-gradient"/>
    <linearGradient id="linear-gradient-20" x1="491.52" y1="80.67" x2="491.52" y2="266.41" xlink:href="#linear-gradient"/>
  </defs>
  <g>
    <path class="cls-2" d="M51.24,319.96c-1.58-1.28-3.34-2.56-5.22-3.79-1.85-1.21-3.58-2.46-5.14-3.72-1.48-1.2-2.2-2.51-2.2-4.03v-5.24c0-.95,.35-1.57,1.09-1.96,.82-.44,1.75-.66,2.77-.66h.82c1.01,0,1.94,.22,2.77,.66,.73,.39,1.09,1.03,1.09,1.96v10.55h6.12v-10.92c0-.97-.33-1.82-.97-2.53-.61-.67-1.41-1.22-2.4-1.63-.95-.4-2.02-.7-3.17-.88-1.14-.18-2.3-.27-3.43-.27h-1.32c-1.14,0-2.31,.09-3.49,.27-1.2,.18-2.27,.48-3.19,.88-.94,.42-1.72,.96-2.33,1.63-.64,.71-.97,1.56-.97,2.53v5.98c0,1.24,.42,2.4,1.24,3.43,.77,.98,1.75,1.91,2.89,2.78,1.11,.85,2.35,1.68,3.68,2.49,1.28,.77,2.49,1.58,3.59,2.41,1.08,.8,1.99,1.66,2.71,2.53,.69,.83,1.02,1.72,1.02,2.7v5.29c0,.94-.38,1.56-1.19,1.96-.91,.44-1.89,.66-2.9,.66h-.83c-1.02,0-1.99-.22-2.9-.66-.81-.39-1.19-1.01-1.19-1.96v-10.55h-6.13v10.92c0,.97,.33,1.82,.97,2.53,.61,.67,1.41,1.22,2.39,1.63,.95,.4,2.04,.7,3.24,.88,1.18,.18,2.35,.27,3.49,.27h1.68c1.21,0,2.41-.09,3.55-.27,1.15-.18,2.2-.48,3.12-.88,.94-.41,1.72-.96,2.33-1.63,.64-.71,.97-1.56,.97-2.53v-5.98c0-1.84-.86-3.48-2.57-4.86Z"/>
    <polygon class="cls-2" points="67.35 300.89 75.09 300.89 75.09 335.79 81.58 335.79 81.58 300.89 89.2 300.89 89.2 297.83 67.35 297.83 67.35 300.89"/>
    <path class="cls-2" d="M125.22,333.49c-.26-.75-.39-2.07-.39-3.91v-9.15c0-1.29-.47-2.28-1.41-2.92-.37-.25-.78-.47-1.23-.64,.45-.18,.86-.4,1.23-.65,.93-.64,1.41-1.63,1.41-2.92v-10.15c0-1.83-1.04-3.21-3.11-4.08-1.92-.82-4.21-1.23-6.81-1.23h-11.7v37.96h6.48v-17.5h5.46c2.87,0,3.2,1.34,3.2,2.36v8.94c0,1.71,.08,2.97,.25,3.85,.18,.95,.49,1.67,.95,2.19l.15,.17h6.57l-.43-.75c-.14-.24-.35-.76-.62-1.55Zm-6.87-29.98v9.62c0,.99-.33,2.3-3.2,2.3h-5.46v-14.55h4.74c1.02,0,1.97,.22,2.81,.66,.74,.39,1.1,1.03,1.1,1.96Z"/>
    <rect class="cls-2" x="141.47" y="297.83" width="6.48" height="37.96"/>
    <polygon class="cls-2" points="182.47 325.46 171.02 297.83 163.87 297.83 163.87 335.79 169.52 335.79 169.52 307.8 181.4 335.79 188.59 335.79 188.59 297.83 182.47 297.83 182.47 325.46"/>
    <path class="cls-2" d="M222.42,298.66c-.95-.4-2.01-.7-3.16-.88-1.14-.18-2.29-.27-3.42-.27h-1.79c-1.13,0-2.3,.09-3.47,.27-1.19,.18-2.26,.48-3.16,.88-.94,.42-1.72,.97-2.31,1.63-.64,.71-.96,1.56-.96,2.53v27.97c0,.97,.32,1.82,.96,2.53,.6,.67,1.38,1.22,2.31,1.63,.91,.4,1.97,.7,3.16,.88,1.17,.18,2.34,.27,3.47,.27h.95c1.06,0,2.22-.14,3.45-.41,1.07-.24,2.08-.57,3.03-.98l.63,1.07h3.64v-15.97h-11.13v3.06h4.65v7.54c0,.95-.35,1.57-1.1,1.96-.84,.44-1.78,.66-2.81,.66h-.83c-1.03,0-1.97-.22-2.81-.66-.75-.39-1.1-1.02-1.1-1.96v-27.23c0-.95,.35-1.57,1.1-1.96,.84-.44,1.78-.66,2.81-.66h.83c1.02,0,1.97,.22,2.81,.66,.75,.39,1.1,1.02,1.1,1.96v10.55h6.48v-10.92c0-.97-.32-1.82-.96-2.53-.6-.67-1.4-1.21-2.38-1.63Z"/>
    <rect class="cls-2" x="241.69" y="297.83" width="6.48" height="37.96"/>
    <polygon class="cls-2" points="282.68 325.46 271.24 297.83 264.09 297.83 264.09 335.79 269.74 335.79 269.74 307.8 281.62 335.79 288.81 335.79 288.81 297.83 282.68 297.83 282.68 325.46"/>
    <path class="cls-2" d="M322.64,298.66c-.95-.4-2.01-.7-3.16-.88-1.14-.18-2.29-.27-3.42-.27h-1.79c-1.13,0-2.3,.09-3.47,.27-1.19,.18-2.26,.48-3.16,.88-.94,.42-1.72,.97-2.31,1.63-.64,.71-.96,1.56-.96,2.53v27.97c0,.97,.32,1.82,.96,2.53,.6,.67,1.38,1.22,2.31,1.63,.91,.4,1.97,.7,3.16,.88,1.17,.18,2.34,.27,3.47,.27h.95c1.06,0,2.22-.14,3.45-.41,1.07-.24,2.08-.57,3.03-.98l.63,1.07h3.64v-15.97h-11.13v3.06h4.65v7.54c0,.95-.35,1.57-1.1,1.96-.84,.44-1.78,.66-2.81,.66h-.84c-1.03,0-1.97-.22-2.81-.66-.75-.39-1.1-1.02-1.1-1.96v-27.23c0-.95,.35-1.57,1.1-1.96,.84-.44,1.78-.66,2.81-.66h.84c1.02,0,1.97,.22,2.81,.66,.75,.39,1.1,1.02,1.1,1.96v10.55h6.48v-10.92c0-.97-.32-1.82-.96-2.53-.6-.67-1.4-1.21-2.38-1.63Z"/>
    <polygon class="cls-2" points="366.58 300.89 374.32 300.89 374.32 335.79 380.8 335.79 380.8 300.89 388.43 300.89 388.43 297.83 366.58 297.83 366.58 300.89"/>
    <polygon class="cls-2" points="416.98 315.38 408.92 315.38 408.92 297.83 402.44 297.83 402.44 335.79 408.92 335.79 408.92 318.23 416.98 318.23 416.98 335.79 423.46 335.79 423.46 297.83 416.98 297.83 416.98 315.38"/>
    <polygon class="cls-2" points="446.22 318.23 454.81 318.23 454.81 315.38 446.22 315.38 446.22 300.89 457.31 300.89 457.31 297.83 439.74 297.83 439.74 335.79 457.78 335.79 457.78 332.73 446.22 332.73 446.22 318.23"/>
    <polygon class="cls-2" points="525.31 324.81 519.05 297.83 513.48 297.83 507.92 324.68 503.47 297.83 497.21 297.83 503.58 335.79 510.6 335.79 516.31 309.92 522.8 335.79 529.21 335.79 535.57 297.83 529.67 297.83 525.31 324.81"/>
    <path class="cls-2" d="M567.41,298.66c-.95-.4-2.01-.7-3.16-.88-1.14-.18-2.29-.27-3.42-.27h-1.79c-1.13,0-2.3,.09-3.47,.27-1.19,.18-2.26,.48-3.16,.88-.94,.42-1.72,.96-2.31,1.63-.64,.71-.96,1.56-.96,2.53v27.97c0,.97,.32,1.82,.96,2.53,.6,.67,1.38,1.22,2.31,1.63,.91,.4,1.97,.7,3.16,.88,1.17,.18,2.34,.27,3.47,.27h1.79c1.13,0,2.28-.09,3.42-.27,1.14-.18,2.21-.48,3.16-.88,.98-.42,1.78-.97,2.38-1.63,.64-.71,.96-1.56,.96-2.53v-27.97c0-.97-.32-1.82-.96-2.53-.6-.67-1.4-1.21-2.38-1.63Zm-3.14,4.53v27.23c0,.95-.35,1.57-1.1,1.96-.84,.44-1.78,.66-2.81,.66h-.83c-1.03,0-1.97-.22-2.81-.66-.75-.39-1.1-1.02-1.1-1.96v-27.23c0-.95,.35-1.57,1.1-1.96,.84-.44,1.78-.66,2.81-.66h.83c1.02,0,1.97,.22,2.81,.66,.75,.39,1.1,1.02,1.1,1.96Z"/>
    <path class="cls-2" d="M608.68,333.49c-.26-.75-.39-2.07-.39-3.91v-9.15c0-1.29-.47-2.28-1.41-2.92-.37-.25-.78-.47-1.23-.64,.45-.18,.86-.4,1.23-.65,.93-.64,1.41-1.63,1.41-2.92v-10.15c0-1.83-1.05-3.21-3.11-4.08-1.92-.82-4.21-1.23-6.81-1.23h-11.7v37.96h6.48v-17.5h5.46c2.87,0,3.2,1.34,3.2,2.36v8.94c0,1.71,.08,2.97,.25,3.85,.18,.95,.49,1.67,.95,2.19l.15,.17h6.58l-.43-.75c-.14-.24-.35-.76-.62-1.55Zm-15.52-32.6h4.74c1.02,0,1.97,.22,2.81,.66,.74,.39,1.1,1.03,1.1,1.96v9.62c0,.99-.33,2.3-3.2,2.3h-5.46v-14.55Z"/>
    <polygon class="cls-2" points="631.41 297.83 624.93 297.83 624.93 335.79 641.78 335.79 641.78 332.94 631.41 332.94 631.41 297.83"/>
    <path class="cls-2" d="M673.94,298.89c-.95-.38-2.01-.66-3.16-.82-1.13-.16-2.28-.24-3.41-.24h-11.7v37.96h11.7c1.13,0,2.27-.08,3.41-.24,1.15-.16,2.21-.44,3.16-.82,.98-.4,1.78-.93,2.38-1.58,.64-.69,.97-1.54,.97-2.51v-27.66c0-.97-.33-1.81-.97-2.51-.6-.65-1.41-1.18-2.38-1.58Zm-11.78,1.99h4.74c1.03,0,1.98,.2,2.83,.59,.74,.34,1.08,.94,1.08,1.87v26.92c0,.94-.34,1.53-1.08,1.87-.85,.39-1.8,.59-2.83,.59h-4.74v-31.84Z"/>
    <path class="cls-2" d="M738.18,298.66c-.95-.4-2.01-.7-3.16-.88-1.14-.18-2.29-.27-3.42-.27h-1.79c-1.13,0-2.3,.09-3.47,.27-1.19,.18-2.26,.48-3.16,.88-.94,.42-1.72,.97-2.31,1.63-.64,.71-.96,1.56-.96,2.53v27.97c0,.97,.32,1.82,.96,2.53,.6,.67,1.38,1.22,2.31,1.63,.91,.4,1.97,.7,3.16,.88,1.17,.18,2.34,.27,3.47,.27h1.79c1.13,0,2.28-.09,3.42-.27,1.14-.18,2.21-.48,3.16-.88,.98-.42,1.78-.97,2.38-1.63,.64-.71,.96-1.56,.96-2.53v-27.97c0-.97-.32-1.82-.96-2.53-.6-.67-1.4-1.21-2.38-1.63Zm-3.14,4.53v27.23c0,.95-.35,1.57-1.1,1.96-.84,.44-1.78,.66-2.81,.66h-.84c-1.03,0-1.97-.22-2.81-.66-.75-.39-1.1-1.02-1.1-1.96v-27.23c0-.95,.35-1.57,1.1-1.96,.84-.44,1.78-.66,2.81-.66h.84c1.02,0,1.97,.22,2.81,.66,.75,.39,1.1,1.02,1.1,1.96Z"/>
    <polygon class="cls-2" points="757.44 335.79 763.92 335.79 763.92 318.23 772.5 318.23 772.5 315.38 763.92 315.38 763.92 300.89 775 300.89 775 297.83 757.44 297.83 757.44 335.79"/>
    <polygon class="cls-2" points="831.65 324.51 824.71 297.83 816.55 297.83 816.55 335.79 822.2 335.79 822.2 309.12 829.05 335.79 834.12 335.79 841.22 309.01 841.22 335.79 846.86 335.79 846.86 297.83 838.71 297.83 831.65 324.51"/>
    <path class="cls-2" d="M878.16,330.43c0,.95-.35,1.57-1.1,1.96-.84,.44-1.79,.66-2.81,.66h-.83c-1.03,0-1.97-.22-2.81-.66-.75-.39-1.1-1.02-1.1-1.96v-32.6h-6.48v32.97c0,.97,.32,1.82,.96,2.53,.6,.67,1.4,1.22,2.38,1.63,.95,.4,2.01,.7,3.16,.88,1.13,.18,2.28,.27,3.42,.27h1.79c1.21,0,2.4-.09,3.53-.27,1.15-.18,2.19-.48,3.1-.88,.93-.41,1.71-.96,2.31-1.63,.64-.71,.96-1.56,.96-2.53v-32.97h-6.48v32.6Z"/>
    <path class="cls-2" d="M919.49,319.96c-1.58-1.28-3.34-2.56-5.22-3.79-1.85-1.21-3.58-2.46-5.14-3.72-1.48-1.2-2.2-2.51-2.2-4.03v-5.24c0-.95,.35-1.57,1.09-1.96,.82-.44,1.75-.66,2.77-.66h.82c1.01,0,1.94,.22,2.77,.66,.73,.39,1.09,1.03,1.09,1.96v10.55h6.12v-10.92c0-.97-.33-1.82-.97-2.53-.61-.67-1.41-1.22-2.4-1.63-.95-.4-2.02-.7-3.17-.88-1.14-.18-2.3-.27-3.43-.27h-1.32c-1.14,0-2.31,.09-3.49,.27-1.2,.18-2.27,.48-3.19,.88-.94,.42-1.72,.96-2.33,1.63-.64,.71-.97,1.56-.97,2.53v5.98c0,1.24,.42,2.4,1.24,3.43,.77,.98,1.75,1.91,2.89,2.78,1.11,.85,2.35,1.69,3.68,2.49,1.28,.78,2.49,1.58,3.59,2.41,1.08,.8,1.99,1.66,2.71,2.53,.69,.83,1.02,1.72,1.02,2.7v5.29c0,.94-.38,1.56-1.19,1.96-.91,.44-1.89,.66-2.9,.66h-.83c-1.02,0-1.99-.22-2.9-.66-.81-.39-1.19-1.01-1.19-1.96v-10.55h-6.13v10.92c0,.97,.33,1.82,.97,2.53,.61,.67,1.41,1.22,2.39,1.63,.95,.4,2.04,.7,3.24,.88,1.18,.18,2.35,.27,3.49,.27h1.68c1.21,0,2.41-.09,3.55-.27,1.16-.18,2.21-.48,3.12-.88,.94-.41,1.72-.96,2.33-1.63,.64-.71,.97-1.56,.97-2.53v-5.98c0-1.84-.86-3.48-2.57-4.86Z"/>
    <rect class="cls-2" x="937.86" y="297.83" width="6.48" height="37.96"/>
    <path class="cls-2" d="M981.88,313.74v-10.92c0-.97-.32-1.82-.96-2.53-.6-.67-1.4-1.21-2.38-1.63-.95-.4-2.01-.7-3.16-.88-1.14-.18-2.29-.27-3.42-.27h-1.79c-1.13,0-2.3,.09-3.47,.27-1.19,.18-2.26,.48-3.16,.88-.94,.42-1.72,.96-2.31,1.63-.64,.71-.96,1.56-.96,2.53v27.97c0,.97,.32,1.82,.96,2.53,.6,.67,1.38,1.22,2.31,1.63,.91,.4,1.97,.7,3.16,.88,1.17,.18,2.34,.27,3.47,.27h1.79c1.13,0,2.28-.09,3.42-.27,1.14-.18,2.21-.48,3.16-.88,.98-.42,1.78-.97,2.38-1.63,.64-.71,.96-1.56,.96-2.53v-10.97h-6.48v10.6c0,.95-.35,1.57-1.1,1.96-.84,.44-1.78,.66-2.81,.66h-.83c-1.03,0-1.97-.22-2.81-.66-.75-.39-1.1-1.02-1.1-1.96v-27.23c0-.95,.35-1.57,1.1-1.96,.84-.44,1.78-.66,2.81-.66h.83c1.02,0,1.97,.22,2.81,.66,.75,.39,1.1,1.02,1.1,1.96v10.55h6.48Z"/>
  </g>
  <path class="cls-1" d="M326.04,238.74h-8.69c-10.09,0-18.35-3.49-24.78-10.46-6.44-6.97-9.66-15.94-9.66-26.88V115.45h36.37c3.22,0,5.9-1.02,8.05-3.06,2.14-2.04,3.22-4.56,3.22-7.57,0-3.22-1.08-5.84-3.22-7.89-2.15-2.04-4.83-3.06-8.05-3.06h-36.37V43.99c0-3.65-1.18-6.65-3.54-9.01-2.36-2.36-5.37-3.54-9.01-3.54s-6.6,1.18-8.86,3.54c-2.25,2.36-3.38,5.37-3.38,9.01v49.9h-20.92c-3.22,0-5.91,1.02-8.05,3.06-2.15,2.04-3.22,4.67-3.22,7.89,0,3.01,1.07,5.53,3.22,7.57,2.14,2.04,4.83,3.06,8.05,3.06h20.92v85.95c0,12.02,2.58,22.69,7.73,32.03,5.15,9.34,12.18,16.69,21.08,22.05,8.9,5.37,19.04,8.05,30.42,8.05h6.76c3.86,0,7.08-1.13,9.66-3.38,2.57-2.25,3.86-5.2,3.86-8.85s-1.08-6.65-3.22-9.01c-2.15-2.36-4.94-3.54-8.37-3.54Z"/>
  <path class="cls-7" d="M970.02,129.61c-7.84-13.52-18.46-24.19-31.87-32.03-13.41-7.83-28.6-11.75-45.55-11.75s-32.19,3.92-45.71,11.75c-13.52,7.84-24.2,18.51-32.03,32.03-7.35,12.67-11.2,22.69-11.66,38.57l24.14,.07c.44-11.61,3.28-17.78,8.6-27.04,5.8-10.08,13.63-18.08,23.5-23.98,9.87-5.9,20.92-8.85,33.16-8.85s23.55,2.95,33.32,8.85c9.76,5.91,17.49,13.9,23.18,23.98,5.68,10.09,8.53,21.57,8.53,34.44s-2.85,24.09-8.53,34.28c-5.69,10.2-13.41,18.19-23.18,23.98-9.77,5.8-20.87,8.69-33.32,8.69s-23.29-2.9-33.16-8.69c-9.87-5.79-17.7-13.79-23.5-23.98-5.57-9.8-8.44-17.79-8.65-29.88l-24.15-.08c.2,16.41,3.98,28.24,11.39,41.39,7.61,13.52,17.97,24.2,31.06,32.03,13.09,7.84,27.9,11.75,44.42,11.75,15.66,0,29.67-3.59,42.01-10.78,10.03-5.84,18.32-13.41,24.95-22.66v19.6c0,3.65,1.17,6.6,3.54,8.85,2.36,2.25,5.36,3.38,9.01,3.38s6.65-1.13,9.01-3.38c2.36-2.25,3.54-5.2,3.54-8.85v-75.65c-.22-17.17-4.24-32.51-12.07-46.03Z"/>
  <path class="cls-5" d="M851.15,167.6c3.68-2.84,8.99-2.16,11.84,1.52,.8,1.04,1.29,2.21,1.55,3.41h-16.44c.4-1.89,1.41-3.66,3.06-4.94Z"/>
  <path class="cls-6" d="M861.47,180.96c-3.69,2.84-9,2.16-11.84-1.52-.92-1.19-1.43-2.55-1.63-3.93h16.64c-.31,2.09-1.38,4.07-3.18,5.46Z"/>
  <path class="cls-10" d="M479.93,175.5h366.56c.21,1.71,.83,3.39,1.95,4.85,3.35,4.34,9.61,5.15,13.95,1.8,2.18-1.68,3.47-4.1,3.78-6.65h27.37c.29,2.54,1.21,5.04,2.88,7.21,4.91,6.37,14.06,7.54,20.42,2.63,6.37-4.91,7.54-14.06,2.63-20.42-4.91-6.37-14.06-7.54-20.42-2.63-3.35,2.58-5.22,6.34-5.56,10.24h-27.44c-.27-1.53-.86-3.02-1.87-4.33-3.35-4.34-9.61-5.15-13.95-1.8-2.03,1.57-3.25,3.78-3.67,6.13H479.95l-.02,2.97Z"/>
  <g>
    <path class="cls-8" d="M623.23,168.49c50.45-.37,130.98-.06,226.75,.88v-.74c-95.77-.94-176.3-1.26-226.76-.88-2.1,.02-4.16,.02-6.2,.02-31.94,0-56.4-1.89-75.1-4.63v.75c26.76,3.9,56.73,4.79,81.3,4.6Z"/>
    <path class="cls-9" d="M848.18,179.95c-37.37,0-79.25-.36-119.77-.71-38.56-.33-74.97-.64-99.65-.55-23.92,.09-57.35,1.17-86.83,5.51v.72c21.12-3.17,49.25-5.34,86.83-5.49,24.69-.1,61.08,.22,99.64,.55,40.53,.35,82.4,.71,119.78,.71h2.05v-.74h-2.05Z"/>
    <path class="cls-3" d="M541.93,152.08c0-10.08,2.74-15.81,8.21-23.11,5.47-7.29,12.88-12.72,22.21-16.26,9.34-3.54,20.01-4.77,32.03-3.7,3.65,.22,6.92,.43,9.82,.64,2.9,.22,5.36-.21,7.4-1.29,2.04-1.07,3.49-3.22,4.34-6.44,1.29-5.36-.75-9.44-6.11-12.23-5.37-2.79-12.99-4.19-22.86-4.19-12.45,0-23.77,3.01-33.96,9.01-8.32,4.91-15.34,11.35-21.09,19.25v-14.1c0-3.86-1.08-6.87-3.22-9.01-2.15-2.14-5.15-3.22-9.01-3.22s-6.87,1.08-9.01,3.22c-2.15,2.15-3.22,5.15-3.22,9.01v58.69c6.79,1.72,14.87,3.36,24.46,4.77v-11.06Z"/>
    <path class="cls-4" d="M541.93,163.88v-.75c-9.59-1.41-17.68-3.05-24.46-4.77v.78c7.63,1.93,15.88,3.49,24.46,4.74Z"/>
    <path class="cls-20" d="M541.93,163.88v-.75c-9.59-1.41-17.68-3.05-24.46-4.77v.78c7.63,1.93,15.88,3.49,24.46,4.74Z"/>
    <path class="cls-21" d="M517.47,251.3c0,3.86,1.07,6.87,3.22,9.01,2.14,2.15,5.15,3.22,9.01,3.22s6.87-1.07,9.01-3.22c2.14-2.14,3.22-5.15,3.22-9.01v-66.37c-9.51,1.43-17.6,3.05-24.46,4.79v61.58Z"/>
    <path class="cls-19" d="M517.47,188.91v.81c6.86-1.74,14.95-3.36,24.46-4.79v-.72c-8.61,1.27-16.87,2.82-24.46,4.7Z"/>
    <path class="cls-18" d="M517.47,188.91v.81c6.86-1.74,14.95-3.36,24.46-4.79v-.72c-8.61,1.27-16.87,2.82-24.46,4.7Z"/>
  </g>
  <path class="cls-11" d="M612.01,167.65l24.14,.07c.5-11.4,3.19-17.39,8.42-26.51,5.8-10.08,13.63-18.08,23.5-23.98,9.87-5.9,20.92-8.85,33.16-8.85s23.55,2.95,33.32,8.85c9.76,5.91,17.49,13.9,23.18,23.98,5.19,9.22,8.15,15.33,8.6,26.88l24.43,.07c-.66-15.86-4.77-25.87-12.1-38.53-7.84-13.52-18.46-24.19-31.87-32.03-13.41-7.83-28.6-11.75-45.55-11.75s-32.19,3.92-45.71,11.75c-13.52,7.84-24.2,18.51-32.03,32.03-7.26,12.53-10.95,22.37-11.48,38.03Z"/>
  <path class="cls-14" d="M757.73,209.93c-5.69,10.2-13.41,18.19-23.18,23.98-9.77,5.8-20.87,8.69-33.32,8.69s-23.29-2.9-33.16-8.69c-9.87-5.79-17.7-13.79-23.5-23.98-5.67-9.98-8.55-18.18-8.67-30.53l-24.15-.08c.1,16.67,3.89,28.71,11.41,42.04,7.61,13.52,17.97,24.2,31.06,32.03,13.09,7.84,27.9,11.75,44.42,11.75,15.66,0,29.67-3.59,42.01-10.78,10.03-5.84,18.32-13.41,24.95-22.66v19.6c0,3.65,1.17,6.6,3.54,8.85,2.36,2.25,5.36,3.38,9.01,3.38s6.65-1.13,9.01-3.38c2.36-2.25,3.54-5.2,3.54-8.85v-71.37l-24.5-.08c-.18,12.17-3,20.23-8.5,30.09Z"/>
  <path class="cls-16" d="M43.46,51.24c-4.78,0-8.91-1.74-12.39-5.22-3.48-3.47-5.22-7.71-5.22-12.72,0-5.43,1.79-9.73,5.38-12.88,3.59-3.15,7.77-4.73,12.55-4.73s8.64,1.58,12.23,4.73c3.59,3.15,5.38,7.45,5.38,12.88,0,5-1.74,9.24-5.22,12.72-3.48,3.48-7.72,5.22-12.72,5.22Zm.33,212.27c-3.91,0-7.01-1.14-9.29-3.42-2.28-2.28-3.42-5.38-3.42-9.29V97.86c0-3.91,1.14-7.01,3.42-9.29,2.28-2.28,5.38-3.42,9.29-3.42,3.69,0,6.69,1.14,8.97,3.42,2.28,2.28,3.43,5.38,3.43,9.29V250.79c0,3.91-1.14,7.01-3.43,9.29-2.28,2.28-5.27,3.42-8.97,3.42Z"/>
  <path class="cls-17" d="M217,245.58l-67.86-83.54,65.25-58.95c2.61-2.17,3.96-4.73,4.08-7.66,.11-2.93-1.03-5.71-3.42-8.31-2.4-2.61-5-3.96-7.83-4.08-2.83-.11-5.54,1.03-8.15,3.42l-79.87,71.43V21.24c0-3.69-1.14-6.68-3.43-8.97-2.28-2.28-5.27-3.42-8.97-3.42s-6.69,1.14-8.97,3.42c-2.28,2.28-3.42,5.27-3.42,8.97V251.12c0,3.7,1.14,6.68,3.42,8.97,2.28,2.28,5.27,3.42,8.97,3.42s6.68-1.14,8.97-3.42c2.28-2.28,3.43-5.27,3.43-8.97v-62.03l12.46-11.26,67.08,82.42c2.17,2.83,4.78,4.4,7.83,4.73,3.04,.33,5.98-.71,8.8-3.1,2.82-2.39,4.35-5.05,4.57-7.99,.21-2.93-.76-5.71-2.94-8.31Z"/>
  <g>
    <path class="cls-12" d="M479.52,210.04c-.71,4.9-3.14,9.47-6.97,12.77-.03,.02-.05,.04-.08,.07-9.07,7.79-19.7,12.55-30.63,14.39-8.11,3.56-17.03,5.34-26.78,5.34-10.99,0-21.03-2.35-30.11-7.02-2.37-11.78-1.7-24.11,3.13-35.27-6.56,10.13-7.68,22.78-4.84,34.36-.45-.25-.9-.5-1.34-.76-2.71-1.59-5.25-3.36-7.65-5.28-2.36-12.82-1.25-26.2,3.92-38.28-6.84,10.85-8.48,24.44-5.61,36.87-3.47-2.98-6.63-6.32-9.42-10.04-1.62-11.57-.12-23.48,4.51-34.3-5.91,9.25-7.97,20.57-6.54,31.41-.95-1.41-1.86-2.85-2.72-4.36-5.79-10.19-8.69-21.62-8.69-34.28s2.9-24.36,8.69-34.44c5.8-10.08,13.63-18.08,23.5-23.98,9.87-5.9,20.92-8.85,33.16-8.85s23.38,2.91,33.1,8.73c10.6,2.98,19.22,8.5,24.95,13,2.95,2.32,5.13,5.39,6.39,8.83,2.18,3.12,7.3,8.23,19.1,13.26,1.18,.5,2.45,1.01,3.8,1.52-1.95-8.51-5.24-16.01-9.92-24.09-7.84-13.52-18.46-24.19-31.87-32.03-13.41-7.83-28.6-11.75-45.55-11.75s-32.19,3.92-45.71,11.75c-13.52,7.84-24.2,18.51-32.03,32.03-7.84,13.52-11.75,28.87-11.75,46.03s3.81,32.19,11.43,45.71c7.61,13.52,17.97,24.2,31.06,32.03,13.09,7.84,27.9,11.75,44.42,11.75,15.66,0,29.67-3.59,42.01-10.78,10.03-5.84,18.32-13.41,24.95-22.66v19.6c0,3.65,1.17,6.6,3.54,8.85,2.36,2.25,5.36,3.38,9.01,3.38s6.65-1.13,9.01-3.38c2.36-2.25,3.54-5.2,3.54-8.85v-57.73c-11.86,4.17-18.3,8.56-21.76,12.06-1.7,1.72-2.69,3.23-3.27,4.41Z"/>
    <path class="cls-15" d="M480.06,178.84c.99,6.73-2.64,13.43-2.04,20.2,.25,2.83,.99,5.89,1.88,8.53,2.49-3.09,6.96-6.94,11.42-9.4,4.53-2.5,13.28-6.02,13.28-6.52-.02-4.57-.03-8.13-.05-12.7-8.15-.04-16.31-.08-24.49-.11Z"/>
    <path class="cls-13" d="M480.14,141.23c1.51,3.42-.28,7.28-1.04,10.94-.69,3.3-.49,6.65-.03,9.96,.64,4.71,.25,5.82,4.68,6.45,1.73,.25,20.62-.24,20.63,.09-.19-4.2-.67-8.39-1.43-12.52-.09-.49-.1-.75-.39-1.15-.42-.56-1.69-.85-2.36-1.08-7.65-2.6-14.94-6.72-20.07-12.7Z"/>
  </g>
</svg>